<?xml version="1.0" encoding="UTF-8" standalone="no"?>
<!DOCTYPE svg PUBLIC "-//W3C//DTD SVG 1.1//EN" "http://www.w3.org/Graphics/SVG/1.1/DTD/svg11.dtd">
<svg width="100%" height="100%" viewBox="0 0 56 56" version="1.1" xmlns="http://www.w3.org/2000/svg" xmlns:xlink="http://www.w3.org/1999/xlink" xml:space="preserve" style="fill-rule:evenodd;clip-rule:evenodd;stroke-linejoin:round;stroke-miterlimit:1.41421;">
    <g transform="matrix(0.886364,0,0,0.875,1.68182,3)">
        <g transform="matrix(0.928833,0,0,0.877551,2.68341,3.42857)">
            <circle cx="13" cy="25.708" r="1" style="fill:rgb(238,139,38);stroke:rgb(89,89,89);stroke-width:0.75px;"/>
        </g>
        <g transform="matrix(0.928833,0,0,0.877551,2.68341,3.42857)">
            <path d="M16,40.849C14.601,41.213 13.506,42 13.142,44L16,44L16,40.849Z" style="fill:rgb(102,206,219);fill-rule:nonzero;stroke:rgb(89,89,89);stroke-width:0.75px;"/>
        </g>
        <g transform="matrix(0.928833,0,0,0.877551,2.68341,3.42857)">
            <path d="M18,40.849L18,44.207L20.696,46.229C20.89,45.76 21,45.247 21,44.708C21,42.849 19.72,41.297 18,40.849Z" style="fill:rgb(238,139,38);fill-rule:nonzero;stroke:rgb(89,89,89);stroke-width:0.75px;"/>
        </g>
        <g transform="matrix(0.928833,0,0,0.877551,2.68341,3.42857)">
            <path d="M46,8.708L46,45.524C47.161,45.11 48,44.01 48,42.708L48,4.708C48,3.053 46.654,2 45,2L19,2C17.698,2 16.598,2 16.184,4L41,4C43.757,4 46,5.951 46,8.708Z" style="fill:white;fill-rule:nonzero;stroke:rgb(89,89,89);stroke-width:0.75px;"/>
        </g>
        <g transform="matrix(0.928833,0,0,0.877551,2.68341,3.42857)">
            <circle cx="19" cy="17.708" r="1" style="fill:rgb(238,139,38);stroke:rgb(89,89,89);stroke-width:0.75px;"/>
        </g>
        <g transform="matrix(0.928833,0,0,0.877551,2.68341,3.42857)">
            <path d="M42,12.708L42,49.524C43.161,49.11 44,48.01 44,46.708L44,8.708C44,7.053 42.654,6 41,6L15,6C13.698,6 12.598,6 12.184,8L37,8C39.757,8 42,9.951 42,12.708Z" style="fill:white;fill-rule:nonzero;stroke:rgb(89,89,89);stroke-width:0.75px;"/>
        </g>
        <g transform="matrix(0.928833,0,0,0.877551,2.68341,3.42857)">
            <circle cx="27" cy="22.708" r="1" style="fill:rgb(238,139,38);stroke:rgb(89,89,89);stroke-width:0.75px;"/>
        </g>
        <g transform="matrix(0.928833,0,0,0.877551,2.68341,3.42857)">
            <circle cx="35" cy="15.708" r="1" style="fill:rgb(238,139,38);stroke:rgb(89,89,89);stroke-width:0.75px;"/>
        </g>
        <g transform="matrix(0.928833,0,0,0.877551,2.68341,3.42857)">
            <path d="M13.142,46C13.589,47 15.142,48.854 17,48.854C17.942,48.854 18.798,48.586 19.482,48.039L16.667,46L13.142,46Z" style="fill:rgb(248,207,38);fill-rule:nonzero;stroke:rgb(89,89,89);stroke-width:0.75px;"/>
        </g>
        <g transform="matrix(0.928833,0,0,0.877551,2.68341,3.42857)">
            <path d="M45,0L19,0C16.554,0 14.521,1.622 14.092,3.946C12.064,4.321 10.467,5.845 10.092,7.873C7.768,8.302 6,10.262 6,12.708L6,50.708C6,53.464 8.243,56 11,56L37,56C39.446,56 41.479,54.086 41.908,51.762C43.936,51.387 45.533,49.717 45.908,47.689C48.232,47.259 50,45.153 50,42.708L50,4.708C50,1.951 47.757,0 45,0ZM40,51C40,52.657 38.657,54 37,54L11,54C9.343,54 8,52.657 8,51L8,13C8,11.343 9.343,10 11,10L37,10C38.657,10 40,11.343 40,13L40,51ZM44,46.708C44,48.01 43.161,49.11 42,49.524L42,12.708C42,9.951 39.757,8 37,8L12.184,8C12.598,6 13.698,6 15,6L41,6C42.654,6 44,7.053 44,8.708L44,46.708ZM48,42.708C48,44.01 47.161,45.11 46,45.524L46,8.708C46,5.951 43.757,4 41,4L16.184,4C16.598,2 17.698,2 19,2L45,2C46.654,2 48,3.053 48,4.708L48,42.708Z" style="fill:rgb(180,113,74);fill-rule:nonzero;stroke:rgb(89,89,89);stroke-width:0.75px;"/>
            <path d="M35,12.708C33.346,12.708 32,14.054 32,15.708C32,16.17 32.113,16.602 32.301,16.993L28.894,20.4C28.376,19.974 27.722,19.708 27,19.708C26.211,19.708 25.499,20.02 24.962,20.519L21.835,18.643C21.934,18.347 22,18.036 22,17.708C22,16.054 20.654,14.708 19,14.708C17.346,14.708 16,16.054 16,17.708C16,18.227 16.145,18.709 16.378,19.135L13.481,22.757C13.324,22.731 13.165,22.708 13.001,22.708C11.347,22.708 10.001,24.054 10.001,25.708C10.001,27.362 11.347,28.708 13.001,28.708C14.655,28.708 16.001,27.362 16.001,25.708C16.001,24.954 15.712,24.273 15.252,23.746L17.864,20.481C18.215,20.626 18.599,20.708 19.002,20.708C19.592,20.708 20.139,20.531 20.604,20.235L24.043,22.299C24.023,22.434 24,22.567 24,22.708C24,24.362 25.346,25.708 27,25.708C28.654,25.708 30,24.362 30,22.708C30,22.526 29.978,22.349 29.946,22.176L33.714,18.408C34.105,18.595 34.538,18.709 34.999,18.709C36.653,18.709 37.999,17.363 37.999,15.709C38,14.053 36.654,12.708 35,12.708ZM13,26.708C12.449,26.708 12,26.26 12,25.708C12,25.156 12.449,24.708 13,24.708C13.551,24.708 14,25.156 14,25.708C14,26.26 13.551,26.708 13,26.708ZM18,17.708C18,17.156 18.449,16.708 19,16.708C19.551,16.708 20,17.156 20,17.708C20,18.26 19.551,18.708 19,18.708C18.449,18.708 18,18.259 18,17.708ZM27,23.708C26.449,23.708 26,23.26 26,22.708C26,22.156 26.449,21.708 27,21.708C27.551,21.708 28,22.156 28,22.708C28,23.26 27.551,23.708 27,23.708ZM35,16.708C34.449,16.708 34,16.26 34,15.708C34,15.156 34.449,14.708 35,14.708C35.551,14.708 36,15.156 36,15.708C36,16.26 35.551,16.708 35,16.708Z" style="fill:rgb(180,113,74);fill-rule:nonzero;stroke:rgb(89,89,89);stroke-width:0.75px;"/>
            <rect x="12" y="31" width="24" height="2" style="fill:rgb(180,113,74);stroke:rgb(89,89,89);stroke-width:0.75px;"/>
            <rect x="12" y="35" width="24" height="2" style="fill:rgb(180,113,74);stroke:rgb(89,89,89);stroke-width:0.75px;"/>
            <path d="M17,38.708C13.691,38.708 11,41.399 11,44.708C11,48.017 13.691,50.708 17,50.708C20.309,50.708 23,48.017 23,44.708C23,41.399 20.309,38.708 17,38.708ZM21,44.708C21,45.247 20.89,45.76 20.696,46.23L18,44.208L18,40.85C19.72,41.297 21,42.849 21,44.708ZM16,40.849L16,44L13.142,44C13.506,42 14.601,41.213 16,40.849ZM13.142,46L16.667,46L19.483,47.965C18.799,48.512 17.943,48.926 17.001,48.926C15.142,48.927 13.589,47 13.142,46Z" style="fill:rgb(180,113,74);fill-rule:nonzero;stroke:rgb(89,89,89);stroke-width:0.75px;"/>
            <rect x="25" y="40" width="11" height="2" style="fill:rgb(180,113,74);stroke:rgb(89,89,89);stroke-width:0.75px;"/>
            <rect x="25" y="44" width="11" height="2" style="fill:rgb(180,113,74);stroke:rgb(89,89,89);stroke-width:0.75px;"/>
            <rect x="25" y="48" width="11" height="2" style="fill:rgb(180,113,74);stroke:rgb(89,89,89);stroke-width:0.75px;"/>
        </g>
    </g>
</svg>
