<?xml version="1.0" encoding="UTF-8" standalone="no"?>
<!DOCTYPE svg PUBLIC "-//W3C//DTD SVG 1.1//EN" "http://www.w3.org/Graphics/SVG/1.1/DTD/svg11.dtd">
<svg width="100%" height="100%" viewBox="0 0 48 48" version="1.1" xmlns="http://www.w3.org/2000/svg" xmlns:xlink="http://www.w3.org/1999/xlink" xml:space="preserve" style="fill-rule:evenodd;clip-rule:evenodd;stroke-linecap:round;stroke-linejoin:round;stroke-miterlimit:1.5;">
    <g transform="matrix(1.19791,0,0,1.13333,-1.7499,-3.19998)">
        <g transform="matrix(0.784194,0,0,0.828877,4.24623,8.27806)">
            <rect x="6" y="12" width="6" height="6" style="fill:none;stroke:rgb(115,115,115);stroke-width:0.85px;"/>
        </g>
        <g transform="matrix(0.784194,0,0,0.828877,4.24623,0.818164)">
            <rect x="6" y="12" width="6" height="6" style="fill:none;stroke:rgb(115,115,115);stroke-width:0.85px;"/>
        </g>
        <g transform="matrix(0.784194,0,0,0.828877,8.9514,8.27806)">
            <rect x="6" y="12" width="6" height="6" style="fill:rgb(175,98,42);stroke:rgb(115,115,115);stroke-width:0.85px;"/>
        </g>
        <g transform="matrix(0.784194,0,0,0.828877,8.9514,0.818164)">
            <rect x="6" y="12" width="6" height="6" style="fill:none;stroke:rgb(115,115,115);stroke-width:0.85px;"/>
        </g>
        <g transform="matrix(0.784194,0,0,0.828877,13.6566,8.27806)">
            <rect x="6" y="12" width="6" height="6" style="fill:rgb(175,98,42);stroke:rgb(115,115,115);stroke-width:0.85px;"/>
        </g>
        <g transform="matrix(0.784194,0,0,0.828877,13.6566,0.818164)">
            <rect x="6" y="12" width="6" height="6" style="fill:none;stroke:rgb(115,115,115);stroke-width:0.85px;"/>
        </g>
        <g transform="matrix(0.784194,0,0,0.828877,18.3617,8.27806)">
            <rect x="6" y="12" width="6" height="6" style="fill:none;stroke:rgb(115,115,115);stroke-width:0.85px;"/>
        </g>
        <g transform="matrix(0.784194,0,0,0.828877,18.3617,0.818164)">
            <rect x="6" y="12" width="6" height="6" style="fill:rgb(175,98,42);stroke:rgb(115,115,115);stroke-width:0.85px;"/>
        </g>
        <g transform="matrix(0.784194,0,0,0.828877,23.0669,8.27806)">
            <rect x="6" y="12" width="6" height="6" style="fill:none;stroke:rgb(115,115,115);stroke-width:0.85px;"/>
        </g>
        <g transform="matrix(0.784194,0,0,0.828877,23.0669,0.818164)">
            <rect x="6" y="12" width="6" height="6" style="fill:none;stroke:rgb(115,115,115);stroke-width:0.85px;"/>
        </g>
        <g transform="matrix(0.784194,0,0,0.828877,3.8977,15.738)">
            <rect x="6" y="12" width="6" height="6" style="fill:rgb(175,98,42);stroke:rgb(115,115,115);stroke-width:0.85px;"/>
        </g>
        <g transform="matrix(0.784194,0,0,0.828877,3.8977,23.1979)">
            <rect x="6" y="12" width="6" height="6" style="fill:none;stroke:rgb(115,115,115);stroke-width:0.85px;"/>
        </g>
        <g transform="matrix(0.784194,0,0,0.828877,8.60287,15.738)">
            <rect x="6" y="12" width="6" height="6" style="fill:rgb(175,98,42);stroke:rgb(115,115,115);stroke-width:0.85px;"/>
        </g>
        <g transform="matrix(0.784194,0,0,0.828877,8.60287,23.1979)">
            <rect x="6" y="12" width="6" height="6" style="fill:rgb(175,98,42);stroke:rgb(115,115,115);stroke-width:0.85px;"/>
        </g>
        <g transform="matrix(0.784194,0,0,0.828877,13.308,15.738)">
            <rect x="6" y="12" width="6" height="6" style="fill:rgb(175,98,42);stroke:rgb(115,115,115);stroke-width:0.85px;"/>
        </g>
        <g transform="matrix(0.784194,0,0,0.828877,13.308,23.1979)">
            <rect x="6" y="12" width="6" height="6" style="fill:rgb(175,98,42);stroke:rgb(115,115,115);stroke-width:0.85px;"/>
        </g>
        <g transform="matrix(0.784194,0,0,0.828877,18.0132,15.738)">
            <rect x="6" y="12" width="6" height="6" style="fill:none;stroke:rgb(115,115,115);stroke-width:0.85px;"/>
        </g>
        <g transform="matrix(0.784194,0,0,0.828877,18.0132,23.1979)">
            <rect x="6" y="12" width="6" height="6" style="fill:rgb(175,98,42);stroke:rgb(115,115,115);stroke-width:0.85px;"/>
        </g>
        <g transform="matrix(0.784194,0,0,0.828877,22.7184,15.738)">
            <rect x="6" y="12" width="6" height="6" style="fill:none;stroke:rgb(115,115,115);stroke-width:0.85px;"/>
        </g>
        <g transform="matrix(0.784194,0,0,0.828877,22.7184,23.1979)">
            <rect x="6" y="12" width="6" height="6" style="fill:rgb(175,98,42);stroke:rgb(115,115,115);stroke-width:0.85px;"/>
        </g>
    </g>
    <g id="Layer1">
        <g transform="matrix(0.417508,0,0,0.417508,6.9899,16.7239)">
            <text x="7px" y="12.596px" style="font-family:'ArialMT', 'Arial', sans-serif;font-size:12px;">L</text>
        </g>
        <g transform="matrix(0.417508,0,0,0.417508,6.9899,8.26936)">
            <text x="7px" y="12.596px" style="font-family:'ArialMT', 'Arial', sans-serif;font-size:12px;">L</text>
        </g>
        <g transform="matrix(0.417508,0,0,0.417508,12.6263,16.7239)">
            <text x="7px" y="12.596px" style="font-family:'ArialMT', 'Arial', sans-serif;font-size:12px;fill:rgb(242,242,242);">e</text>
        </g>
        <g transform="matrix(0.417508,0,0,0.417508,12.6263,8.26936)">
            <text x="7px" y="12.596px" style="font-family:'ArialMT', 'Arial', sans-serif;font-size:12px;">e</text>
        </g>
        <g transform="matrix(0.417508,0,0,0.417508,18.2626,16.7239)">
            <text x="7px" y="12.596px" style="font-family:'ArialMT', 'Arial', sans-serif;font-size:12px;fill:rgb(242,242,242);">a</text>
        </g>
        <g transform="matrix(0.417508,0,0,0.417508,18.2626,8.26936)">
            <text x="7px" y="12.596px" style="font-family:'ArialMT', 'Arial', sans-serif;font-size:12px;">a</text>
        </g>
        <g transform="matrix(0.417508,0,0,0.417508,24.8384,16.7239)">
            <text x="7px" y="12.596px" style="font-family:'ArialMT', 'Arial', sans-serif;font-size:12px;">r</text>
        </g>
        <g transform="matrix(0.417508,0,0,0.417508,24.8384,8.26936)">
            <text x="7px" y="12.596px" style="font-family:'ArialMT', 'Arial', sans-serif;font-size:12px;fill:rgb(242,242,242);">r</text>
        </g>
        <g transform="matrix(0.417508,0,0,0.417508,29.5354,16.7239)">
            <text x="7px" y="12.596px" style="font-family:'ArialMT', 'Arial', sans-serif;font-size:12px;">n</text>
        </g>
        <g transform="matrix(0.417508,0,0,0.417508,29.5354,8.26936)">
            <text x="7px" y="12.596px" style="font-family:'ArialMT', 'Arial', sans-serif;font-size:12px;">n</text>
        </g>
        <g transform="matrix(0.417508,0,0,0.417508,6.57239,25.1785)">
            <text x="7px" y="12.596px" style="font-family:'ArialMT', 'Arial', sans-serif;font-size:12px;fill:rgb(242,242,242);">L</text>
        </g>
        <g transform="matrix(0.417508,0,0,0.417508,6.57239,33.633)">
            <text x="7px" y="12.596px" style="font-family:'ArialMT', 'Arial', sans-serif;font-size:12px;">L</text>
        </g>
        <g transform="matrix(0.417508,0,0,0.417508,12.2088,25.1785)">
            <text x="7px" y="12.596px" style="font-family:'ArialMT', 'Arial', sans-serif;font-size:12px;fill:rgb(242,242,242);">e</text>
        </g>
        <g transform="matrix(0.417508,0,0,0.417508,12.2088,33.633)">
            <text x="7px" y="12.596px" style="font-family:'ArialMT', 'Arial', sans-serif;font-size:12px;fill:rgb(242,242,242);">e</text>
        </g>
        <g transform="matrix(0.417508,0,0,0.417508,17.8451,25.1785)">
            <text x="7px" y="12.596px" style="font-family:'ArialMT', 'Arial', sans-serif;font-size:12px;fill:rgb(242,242,242);">a</text>
        </g>
        <g transform="matrix(0.417508,0,0,0.417508,17.8451,33.633)">
            <text x="7px" y="12.596px" style="font-family:'ArialMT', 'Arial', sans-serif;font-size:12px;fill:rgb(242,242,242);">a</text>
        </g>
        <g transform="matrix(0.417508,0,0,0.417508,24.4209,25.1785)">
            <text x="7px" y="12.596px" style="font-family:'ArialMT', 'Arial', sans-serif;font-size:12px;">r</text>
        </g>
        <g transform="matrix(0.417508,0,0,0.417508,24.4209,33.633)">
            <text x="7px" y="12.596px" style="font-family:'ArialMT', 'Arial', sans-serif;font-size:12px;fill:rgb(242,242,242);">r</text>
        </g>
        <g transform="matrix(0.417508,0,0,0.417508,29.1178,25.1785)">
            <text x="7px" y="12.596px" style="font-family:'ArialMT', 'Arial', sans-serif;font-size:12px;">n</text>
        </g>
        <g transform="matrix(0.417508,0,0,0.417508,29.1178,33.633)">
            <text x="7px" y="12.596px" style="font-family:'ArialMT', 'Arial', sans-serif;font-size:12px;fill:rgb(242,242,242);">n</text>
        </g>
    </g>
</svg>
