<?xml version="1.0" encoding="UTF-8" standalone="no"?>
<!DOCTYPE svg PUBLIC "-//W3C//DTD SVG 1.1//EN" "http://www.w3.org/Graphics/SVG/1.1/DTD/svg11.dtd">
<svg width="100%" height="100%" viewBox="0 0 1800 1350" version="1.1" xmlns="http://www.w3.org/2000/svg" xmlns:xlink="http://www.w3.org/1999/xlink" xml:space="preserve" style="fill-rule:evenodd;clip-rule:evenodd;stroke-linejoin:round;stroke-miterlimit:1.41421;">
    <g transform="matrix(0.597864,0,0,-0.511657,-83.701,1171.23)">
        <path d="M1272,1799C1243,1794 1192,1778 1157,1763C1101,1739 1083,1736 970,1736L845,1735L760,1694C654,1643 578,1571 532,1478C505,1423 495,1412 469,1406C409,1394 273,1225 296,1189C299,1183 294,1161 285,1140C259,1083 276,910 321,776L353,677L342,561C330,427 303,300 287,295C280,293 263,289 247,286C219,279 140,215 140,199C140,194 151,197 165,206C183,218 207,221 262,218C342,215 350,222 322,270L307,295L328,276C340,265 350,250 351,241C351,230 354,232 360,247L369,269L409,249C458,226 463,226 506,246C538,261 540,265 540,314C540,343 543,369 546,373C550,376 570,370 591,360C637,336 713,334 754,355C769,363 795,370 811,370C851,370 887,406 914,473C927,505 939,531 941,531C943,531 968,521 995,509C1035,491 1068,485 1160,482C1223,480 1296,478 1321,477L1367,475L1344,406C1331,368 1320,319 1320,297L1320,258L1360,311C1382,341 1400,374 1400,387C1400,399 1405,421 1412,435C1422,458 1428,461 1454,455C1471,452 1506,446 1532,443L1579,438L1566,407C1548,364 1538,302 1546,289C1556,272 1619,340 1630,380L1640,416L1731,418C1814,419 1964,441 2007,457C2021,463 2022,457 2018,409C2006,296 2030,222 2058,284C2064,298 2083,319 2099,331C2126,351 2130,360 2130,404C2130,432 2133,464 2136,475C2142,499 2285,571 2375,596C2508,633 2629,715 2666,795C2710,888 2689,897 2617,815C2574,766 2564,740 2600,773C2612,783 2612,782 2600,767C2593,757 2580,752 2573,754C2565,757 2546,753 2530,745C2511,735 2472,730 2422,730C2343,730 2342,730 2337,758C2334,774 2319,792 2301,803C2271,820 2270,824 2270,888C2270,988 2280,1032 2302,1038C2317,1041 2320,1048 2315,1064C2297,1121 2280,1210 2280,1255L2280,1305L2357,1302C2400,1300 2475,1303 2524,1308C2598,1315 2620,1313 2664,1298C2701,1286 2746,1281 2825,1280C2951,1280 3041,1298 3106,1336C3178,1378 3159,1396 3078,1362C2979,1319 2821,1309 2715,1338L2685,1346L2740,1372C2803,1401 2900,1475 2900,1495C2900,1502 2894,1510 2886,1513C2869,1520 2847,1497 2858,1485C2862,1480 2860,1480 2853,1483C2847,1487 2810,1470 2771,1446C2732,1422 2681,1398 2658,1392C2598,1377 2532,1369 2548,1379C2556,1384 2546,1391 2518,1399C2494,1406 2458,1421 2438,1431C2395,1453 2386,1455 2396,1439C2407,1420 2366,1438 2163,1536C1850,1688 1728,1734 1560,1766C1486,1779 1486,1780 1545,1775C1616,1769 1760,1731 1850,1694C1886,1680 2018,1619 2144,1559C2269,1498 2374,1451 2376,1453C2381,1458 1974,1655 1865,1700C1652,1788 1429,1825 1272,1799ZM1555,1726C1624,1713 1758,1675 1835,1647C1881,1630 2047,1555 2265,1452C2348,1413 2427,1378 2443,1375C2458,1371 2470,1363 2470,1358C2470,1351 2446,1350 2403,1354C2365,1357 2322,1360 2307,1360C2284,1360 2280,1364 2284,1378C2292,1401 2265,1426 2223,1435C2197,1440 2182,1436 2147,1411C2105,1382 2102,1382 2032,1390C1932,1403 1800,1442 1651,1503L1598,1525L1604,1568C1609,1606 1607,1614 1583,1636C1569,1649 1548,1660 1538,1660C1518,1660 1467,1616 1459,1592C1455,1579 1424,1588 1306,1636C1292,1641 1289,1640 1295,1631C1301,1621 1297,1620 1279,1625C1238,1638 1221,1652 1255,1646C1276,1642 1268,1648 1230,1666C1177,1691 1176,1692 1200,1702C1289,1737 1440,1747 1555,1726ZM960,1670C960,1667 940,1647 915,1626C890,1605 844,1555 814,1515C763,1447 756,1442 734,1450C721,1455 682,1457 649,1453L589,1447L612,1486C646,1544 700,1594 761,1623C841,1662 960,1690 960,1670ZM1249,1595C1323,1565 1388,1536 1393,1531C1404,1520 1370,1473 1254,1344C1209,1294 1160,1234 1146,1212C1121,1172 1119,1171 1100,1187C1089,1197 1080,1209 1080,1214C1080,1219 1062,1252 1039,1287C998,1349 932,1402 875,1416C850,1422 850,1422 868,1452C913,1531 1050,1650 1093,1650C1105,1650 1176,1625 1249,1595ZM1681,1429C1727,1412 1825,1383 1899,1364C1973,1346 2035,1329 2037,1326C2044,1319 1918,1234 1850,1200C1814,1182 1783,1164 1780,1161C1768,1145 1641,1090 1627,1096C1612,1101 1590,1213 1590,1282C1590,1313 1590,1313 1611,1294C1632,1275 1633,1275 1626,1295C1601,1377 1584,1460 1593,1460C1595,1460 1634,1446 1681,1429ZM1500,1350C1500,1320 1497,1251 1493,1198L1487,1100L1448,1100C1426,1100 1402,1107 1393,1115C1380,1129 1381,1137 1403,1198C1417,1235 1440,1303 1455,1349C1485,1442 1500,1442 1500,1350ZM2173,1058C2162,996 2149,946 2144,947C2097,958 2030,987 2030,997C2030,1004 2012,1014 1990,1020C1958,1029 1951,1034 1958,1046C1963,1054 2013,1109 2071,1167L2175,1272L2184,1221C2191,1183 2188,1143 2173,1058ZM480,363C480,313 479,310 455,310C440,310 415,303 398,294L367,278L373,335C376,367 384,398 389,403C395,409 400,448 400,489L401,565L440,490C470,432 479,403 480,363Z" style="fill:rgb(63,84,0);fill-rule:nonzero;"/>
    </g>
    <g transform="matrix(0.49758,0,0,-0.511657,110.339,1183.93)">
        <path d="M2108,308C2069,285 2051,255 2068,238C2074,232 2099,233 2139,241C2198,254 2239,250 2318,225C2353,213 2343,232 2294,268C2244,305 2190,330 2163,330C2153,330 2128,320 2108,308Z" style="fill-rule:nonzero;"/>
    </g>
</svg>
