<?xml version="1.0" standalone="no"?>
<!DOCTYPE svg PUBLIC "-//W3C//DTD SVG 20010904//EN"
 "http://www.w3.org/TR/2001/REC-SVG-20010904/DTD/svg10.dtd">
<svg version="1.0" xmlns="http://www.w3.org/2000/svg"
 width="320.000000pt" height="200.000000pt" viewBox="0 0 320.000000 200.000000"
 preserveAspectRatio="xMidYMid meet">
<metadata>
Created by potrace 1.14, written by Peter Selinger 2001-2017
</metadata>
<g transform="translate(0.000000,200.000000) scale(0.100000,-0.100000)"
fill="#000000" stroke="none">
<path d="M1272 1799 c-29 -5 -80 -21 -115 -36 -56 -24 -74 -27 -187 -27 l-125
-1 -85 -41 c-106 -51 -182 -123 -228 -216 -27 -55 -37 -66 -63 -72 -60 -12
-196 -181 -173 -217 3 -6 -2 -28 -11 -49 -26 -57 -9 -230 36 -364 l32 -99 -11
-116 c-12 -134 -39 -261 -55 -266 -7 -2 -24 -6 -40 -9 -28 -7 -107 -71 -107
-87 0 -5 11 -2 25 7 18 12 42 15 97 12 80 -3 88 4 60 52 l-15 25 21 -19 c12
-11 22 -26 23 -35 0 -11 3 -9 9 6 l9 22 40 -20 c49 -23 54 -23 97 -3 32 15 34
19 34 68 0 29 3 55 6 59 4 3 24 -3 45 -13 46 -24 122 -26 163 -5 15 8 41 15
57 15 40 0 76 36 103 103 13 32 25 58 27 58 2 0 27 -10 54 -22 40 -18 73 -24
165 -27 63 -2 136 -4 161 -5 l46 -2 -23 -69 c-13 -38 -24 -87 -24 -109 l0 -39
40 53 c22 30 40 63 40 76 0 12 5 34 12 48 10 23 16 26 42 20 17 -3 52 -9 78
-12 l47 -5 -13 -31 c-18 -43 -28 -105 -20 -118 10 -17 73 51 84 91 l10 36 91
2 c83 1 233 23 276 39 14 6 15 0 11 -48 -12 -113 12 -187 40 -125 6 14 25 35
41 47 27 20 31 29 31 73 0 28 3 60 6 71 6 24 149 96 239 121 133 37 254 119
291 199 44 93 23 102 -49 20 -43 -49 -53 -75 -17 -42 12 10 12 9 0 -6 -7 -10
-20 -15 -27 -13 -8 3 -27 -1 -43 -9 -19 -10 -58 -15 -108 -15 -79 0 -80 0 -85
28 -3 16 -18 34 -36 45 -30 17 -31 21 -31 85 0 100 10 144 32 150 15 3 18 10
13 26 -18 57 -35 146 -35 191 l0 50 77 -3 c43 -2 118 1 167 6 74 7 96 5 140
-10 37 -12 82 -17 161 -18 126 0 216 18 281 56 72 42 53 60 -28 26 -99 -43
-257 -53 -363 -24 l-30 8 55 26 c63 29 160 103 160 123 0 7 -6 15 -14 18 -17
7 -39 -16 -28 -28 4 -5 2 -5 -5 -2 -6 4 -43 -13 -82 -37 -39 -24 -90 -48 -113
-54 -60 -15 -126 -23 -110 -13 8 5 -2 12 -30 20 -24 7 -60 22 -80 32 -43 22
-52 24 -42 8 11 -19 -30 -1 -233 97 -313 152 -435 198 -603 230 -74 13 -74 14
-15 9 71 -6 215 -44 305 -81 36 -14 168 -75 294 -135 125 -61 230 -108 232
-106 5 5 -402 202 -511 247 -213 88 -436 125 -593 99z m283 -73 c69 -13 203
-51 280 -79 46 -17 212 -92 430 -195 83 -39 162 -74 178 -77 15 -4 27 -12 27
-17 0 -7 -24 -8 -67 -4 -38 3 -81 6 -96 6 -23 0 -27 4 -23 18 8 23 -19 48 -61
57 -26 5 -41 1 -76 -24 -42 -29 -45 -29 -115 -21 -100 13 -232 52 -381 113
l-53 22 6 43 c5 38 3 46 -21 68 -14 13 -35 24 -45 24 -20 0 -71 -44 -79 -68
-4 -13 -35 -4 -153 44 -14 5 -17 4 -11 -5 6 -10 2 -11 -16 -6 -41 13 -58 27
-24 21 21 -4 13 2 -25 20 -53 25 -54 26 -30 36 89 35 240 45 355 24z m-595
-56 c0 -3 -20 -23 -45 -44 -25 -21 -71 -71 -101 -111 -51 -68 -58 -73 -80 -65
-13 5 -52 7 -85 3 l-60 -6 23 39 c34 58 88 108 149 137 80 39 199 67 199 47z
m289 -75 c74 -30 139 -59 144 -64 11 -11 -23 -58 -139 -187 -45 -50 -94 -110
-108 -132 -25 -40 -27 -41 -46 -25 -11 10 -20 22 -20 27 0 5 -18 38 -41 73
-41 62 -107 115 -164 129 -25 6 -25 6 -7 36 45 79 182 198 225 198 12 0 83
-25 156 -55z m432 -166 c46 -17 144 -46 218 -65 74 -18 136 -35 138 -38 7 -7
-119 -92 -187 -126 -36 -18 -67 -36 -70 -39 -12 -16 -139 -71 -153 -65 -15 5
-37 117 -37 186 0 31 0 31 21 12 21 -19 22 -19 15 1 -25 82 -42 165 -33 165 2
0 41 -14 88 -31z m-181 -79 c0 -30 -3 -99 -7 -152 l-6 -98 -39 0 c-22 0 -46 7
-55 15 -13 14 -12 22 10 83 14 37 37 105 52 151 30 93 45 93 45 1z m673 -292
c-11 -62 -24 -112 -29 -111 -47 11 -114 40 -114 50 0 7 -18 17 -40 23 -32 9
-39 14 -32 26 5 8 55 63 113 121 l104 105 9 -51 c7 -38 4 -78 -11 -163z
m-1693 -695 c0 -50 -1 -53 -25 -53 -15 0 -40 -7 -57 -16 l-31 -16 6 57 c3 32
11 63 16 68 6 6 11 45 11 86 l1 76 39 -75 c30 -58 39 -87 40 -127z"/>
<path d="M2108 308 c-39 -23 -57 -53 -40 -70 6 -6 31 -5 71 3 59 13 100 9 179
-16 35 -12 25 7 -24 43 -50 37 -104 62 -131 62 -10 0 -35 -10 -55 -22z"/>
</g>
</svg>
